<svg width="1024" height="1024" viewBox="0 0 1024 1024" fill="none" xmlns="http://www.w3.org/2000/svg">
<rect width="1024" height="1024" rx="160" fill="#343A40"/>
<path d="M511.329 273C614.497 273 703.344 325.607 743.42 401.261C753.039 419.42 770.315 432.972 790.569 436.446C878.606 451.545 943.482 503.383 943.482 565.01C943.482 638.469 851.304 698.019 737.598 698.019C725.691 698.019 714.021 697.366 702.669 696.112C670.44 692.553 630.293 714.278 601.734 729.632C578.299 742.232 546.211 750 510.819 750C475.215 749.999 442.956 742.138 419.485 729.405C391.212 714.067 351.741 692.63 319.767 696.137C308.484 697.374 296.888 698.019 285.06 698.019C171.353 698.019 79.176 638.469 79.1758 565.01C79.1758 503.382 144.052 451.544 232.09 436.445C252.343 432.971 269.619 419.419 279.239 401.261C319.315 325.607 408.162 273.001 511.329 273Z" fill="#85C6B5"/>
<rect x="490.579" y="497.231" width="40.7692" height="132.5" rx="20.3846" fill="#343A40"/>
<rect x="373.733" y="558.747" width="40.7692" height="81.5384" rx="20.3846" transform="rotate(-30 373.733 558.747)" fill="#343A40"/>
<rect x="612.886" y="538.652" width="40.7692" height="81.5384" rx="20.3846" transform="rotate(30 612.886 538.652)" fill="#343A40"/>
</svg>
