<svg width="1024" height="1024" viewBox="0 0 1024 1024" fill="none" xmlns="http://www.w3.org/2000/svg">
<rect width="1024" height="1024" rx="160" fill="#85C6B5"/>
<path d="M511.329 302C600.29 302 677.128 346.53 713.219 411.029C723.253 428.961 740.484 442.508 760.68 446.302C835.937 460.441 890.936 505.322 890.937 558.503C890.937 623.03 809.967 675.34 710.086 675.34C702.304 675.34 694.637 675.022 687.115 674.406C654.798 671.758 613.301 693.086 583.802 706.548C564.026 715.573 538.608 721 510.882 721C482.935 721 457.335 715.487 437.492 706.332C408.284 692.858 367.507 671.799 335.448 674.414C327.956 675.025 320.322 675.34 312.573 675.34C212.692 675.34 131.723 623.03 131.723 558.503C131.723 505.322 186.721 460.441 261.977 446.302C282.173 442.508 299.404 428.962 309.438 411.029C345.529 346.53 422.368 302 511.329 302Z" fill="#343A40"/>
<rect x="493.102" y="498.966" width="35.812" height="116.389" rx="17.906" fill="#85C6B5"/>
<rect x="390.464" y="553.002" width="35.812" height="71.624" rx="17.906" transform="rotate(-30 390.464 553.002)" fill="#85C6B5"/>
<rect x="600.538" y="535.351" width="35.812" height="71.624" rx="17.906" transform="rotate(30 600.538 535.351)" fill="#85C6B5"/>
<path d="M511.329 302C600.29 302 677.128 346.53 713.219 411.029C723.253 428.961 740.484 442.508 760.68 446.302C835.937 460.441 890.936 505.322 890.937 558.503C890.937 623.03 809.967 675.34 710.086 675.34C702.304 675.34 694.637 675.022 687.115 674.406C654.798 671.758 613.301 693.086 583.802 706.548C564.026 715.573 538.608 721 510.882 721C482.935 721 457.335 715.487 437.492 706.332C408.284 692.858 367.507 671.799 335.448 674.414C327.956 675.025 320.322 675.34 312.573 675.34C212.692 675.34 131.723 623.03 131.723 558.503C131.723 505.322 186.721 460.441 261.977 446.302C282.173 442.508 299.404 428.962 309.438 411.029C345.529 346.53 422.368 302 511.329 302Z" fill="#343A40"/>
<rect x="493.102" y="498.966" width="35.812" height="116.389" rx="17.906" fill="#85C6B5"/>
<rect x="390.464" y="553.002" width="35.812" height="71.624" rx="17.906" transform="rotate(-30 390.464 553.002)" fill="#85C6B5"/>
<rect x="600.538" y="535.351" width="35.812" height="71.624" rx="17.906" transform="rotate(30 600.538 535.351)" fill="#85C6B5"/>
</svg>
