<svg version="1.1" id="Layer_1" xmlns="http://www.w3.org/2000/svg" xmlns:xlink="http://www.w3.org/1999/xlink" x="0px" y="0px"
	 width="100%" viewBox="0 0 241 221" enable-background="new 0 0 241 221" xml:space="preserve">
<path fill="#000000" opacity="1.000000" stroke="none" 
	d="
M1.000000,78.000000 
	C1.000000,52.000004 1.000000,26.500010 1.000000,1.000010 
	C81.333313,1.000007 161.666626,1.000007 241.999954,1.000003 
	C241.999969,74.666634 241.999969,148.333267 241.999985,221.999939 
	C161.666718,221.999954 81.333427,221.999954 1.000070,221.999969 
	C1.000000,174.166672 1.000000,126.333336 1.000000,78.000000 
M41.051159,67.695900 
	C41.351086,68.502014 41.651012,69.308136 42.049812,70.813942 
	C43.625851,75.908676 47.054928,79.190361 52.844845,81.013268 
	C54.923615,80.686661 57.002388,80.360054 59.810482,80.029739 
	C61.470127,79.740181 63.129776,79.450630 64.712341,79.174530 
	C65.089111,77.433296 65.459457,75.721748 66.016060,73.245338 
	C68.066925,68.680344 66.402489,65.092339 62.776886,61.440155 
	C62.202938,60.943134 61.628986,60.446110 60.728645,59.436790 
	C59.871353,58.902672 59.014061,58.368549 57.673042,57.286366 
	C52.876583,55.924412 48.120464,54.374481 43.255764,53.330524 
	C42.014320,53.064117 40.428829,54.400944 38.391083,55.274799 
	C38.592979,56.183994 38.794872,57.093185 39.063942,58.796680 
	C39.365978,60.237419 39.668018,61.678158 39.998413,63.783321 
	C40.327217,64.532463 40.656025,65.281609 41.071064,66.521584 
	C41.071064,66.521584 41.183308,67.007462 41.051159,67.695900 
M206.510468,111.956398 
	C207.333694,102.072113 208.568085,92.199875 208.858276,82.299965 
	C209.120193,73.365158 208.958572,64.327118 207.897629,55.464630 
	C206.088333,40.351223 202.198288,26.106148 189.427338,15.744148 
	C179.553970,7.733188 166.128510,5.802682 155.378738,12.390647 
	C152.571655,14.110958 150.746155,13.964244 147.772293,12.527986 
	C137.569260,7.600354 127.087868,7.172480 117.174469,13.380687 
	C114.094368,15.309581 111.497292,16.250320 108.129120,14.586741 
	C106.513885,13.788956 104.689224,13.406145 102.947136,12.875696 
	C89.269753,8.711090 69.385483,16.342604 67.428009,33.334221 
	C66.252426,43.538685 70.300018,55.525856 82.435974,57.544338 
	C88.085083,58.483910 90.348404,60.158924 88.181618,66.027107 
	C87.577324,67.663681 88.846222,69.901062 88.779991,71.846634 
	C88.653526,75.561729 91.007370,79.818649 85.010597,81.969475 
	C63.458858,89.699326 49.415077,104.410080 44.371254,127.179092 
	C41.094364,141.971756 42.309410,156.640106 49.494930,169.608810 
	C60.967304,190.314575 79.287201,201.471649 103.331207,201.930283 
	C123.136261,202.308060 139.351151,194.417038 152.027359,179.340195 
	C154.313309,176.621323 156.701355,175.744385 160.110931,175.923111 
	C171.378693,176.513809 179.999634,170.793930 186.522507,162.615280 
	C198.075531,148.129654 203.186386,130.788818 206.510468,111.956398 
z"/>
<path fill="#492E17" opacity="1.000000" stroke="none" 
	d="
M206.352203,112.361191 
	C203.186386,130.788818 198.075531,148.129654 186.522507,162.615280 
	C179.999634,170.793930 171.378693,176.513809 160.110931,175.923111 
	C156.701355,175.744385 154.313309,176.621323 152.027359,179.340195 
	C139.351151,194.417038 123.136261,202.308060 103.331207,201.930283 
	C79.287201,201.471649 60.967304,190.314575 49.494930,169.608810 
	C42.309410,156.640106 41.094364,141.971756 44.371254,127.179092 
	C49.415077,104.410080 63.458858,89.699326 85.010597,81.969475 
	C91.007370,79.818649 88.653526,75.561729 88.779991,71.846634 
	C88.846222,69.901062 87.577324,67.663681 88.181618,66.027107 
	C90.348404,60.158924 88.085083,58.483910 82.435974,57.544338 
	C70.300018,55.525856 66.252426,43.538685 67.428009,33.334221 
	C69.385483,16.342604 89.269753,8.711090 102.947136,12.875696 
	C104.689224,13.406145 106.513885,13.788956 108.129120,14.586741 
	C111.497292,16.250320 114.094368,15.309581 117.174469,13.380687 
	C127.087868,7.172480 137.569260,7.600354 147.772293,12.527986 
	C150.746155,13.964244 152.571655,14.110958 155.378738,12.390647 
	C166.128510,5.802682 179.553970,7.733188 189.427338,15.744148 
	C202.198288,26.106148 206.088333,40.351223 207.897629,55.464630 
	C208.958572,64.327118 209.120193,73.365158 208.858276,82.299965 
	C208.568085,92.199875 207.333694,102.072113 206.352203,112.361191 
M155.399567,163.660065 
	C151.592041,165.493469 147.784500,167.326859 143.238708,169.199875 
	C136.862259,171.105682 130.485825,173.011505 123.448738,174.989136 
	C120.336975,176.497467 117.243134,178.044571 114.104942,179.495773 
	C112.784821,180.106216 111.371010,180.514038 109.197426,180.917542 
	C102.770065,182.321518 97.025482,181.197281 92.023514,176.644775 
	C91.026367,175.737213 89.399063,175.462738 88.017059,175.046799 
	C77.863197,171.990646 67.692421,168.990677 57.541191,165.925903 
	C55.770412,165.391296 54.066700,164.634567 51.334412,163.604248 
	C58.989925,178.380768 68.987602,188.870575 84.528984,194.458359 
	C99.689064,199.718521 114.536674,199.347260 129.698471,191.902206 
	C141.610580,185.564178 151.170700,177.012924 156.276443,163.872040 
	C156.213181,163.934067 156.149933,163.996109 155.399567,163.660065 
M94.028824,172.745026 
	C99.797783,178.288376 104.916908,178.983017 111.941307,174.776657 
	C117.916901,169.024872 118.761566,161.930099 114.142609,156.286621 
	C109.772240,150.946869 101.844597,149.984772 96.304840,154.121841 
	C90.571632,158.403381 89.592735,165.541794 94.028824,172.745026 
M153.293304,147.026733 
	C142.500946,151.121140 131.708588,155.215561 120.652138,159.410172 
	C120.818214,162.271240 121.034615,165.999298 121.285767,170.326035 
	C131.697235,168.995132 141.280670,166.427460 150.702103,160.949020 
	C159.921875,156.794662 162.390579,152.320999 160.193222,142.919800 
	C158.036682,144.313141 156.025543,145.612518 153.293304,147.026733 
M96.302956,16.924997 
	C95.480476,17.196331 94.657997,17.467667 93.136757,17.498188 
	C90.482124,17.943367 87.691315,18.007477 85.196198,18.899065 
	C73.817436,22.965071 67.572601,33.089546 73.173866,45.147957 
	C76.805840,52.966892 88.106468,57.036915 95.161003,52.841076 
	C101.867027,48.852512 105.505096,40.352859 99.962875,32.487896 
	C99.962875,32.487896 99.967041,31.996563 100.642838,32.071175 
	C101.720184,32.398960 102.797539,32.726742 103.997398,33.698090 
	C104.477715,34.515919 104.958031,35.333752 105.867393,36.882118 
	C105.867393,34.925190 105.867393,33.959347 105.930107,32.143593 
	C106.352295,29.123987 106.774490,26.104383 107.664452,22.602028 
	C106.872169,21.278118 106.368164,19.268297 105.221939,18.786560 
	C103.373466,18.009682 101.101807,18.239727 98.498390,17.782356 
	C97.992638,17.524250 97.486885,17.266144 96.302956,16.924997 
M163.410080,157.478683 
	C161.681412,162.085770 159.952728,166.692871 158.149841,171.497726 
	C164.180542,173.114288 168.983612,170.763031 173.450745,167.964371 
	C186.024048,160.087219 192.340530,147.463852 196.573837,134.135040 
	C203.280121,113.019791 206.132202,91.192413 204.867538,68.109093 
	C204.240097,62.541759 203.896149,56.924755 202.931091,51.416576 
	C200.228775,35.992672 196.035019,21.416183 178.885117,14.317738 
	C173.352982,13.923408 167.819763,13.278191 162.289429,13.301971 
	C160.810638,13.308331 159.340622,15.358415 157.576172,16.839809 
	C151.477966,19.367777 147.995697,26.672428 148.977707,34.876625 
	C149.764313,41.448330 155.479568,48.141060 162.134308,48.712746 
	C173.554443,49.693813 178.348297,42.907085 178.546112,30.999859 
	C179.911575,32.898529 180.560684,33.470104 180.796310,34.179104 
	C183.691803,42.891151 176.608292,52.921505 167.147842,52.914543 
	C162.796661,52.911343 160.460159,54.438843 158.799881,58.302322 
	C154.367584,68.616341 151.904144,79.352715 150.977005,90.507660 
	C150.479965,96.487877 151.864624,101.439285 155.424088,106.652046 
	C159.344315,112.393166 161.575378,119.392326 163.962753,126.051231 
	C167.632645,136.287369 165.581436,146.682343 163.410080,157.478683 
M50.096096,138.685944 
	C61.547321,147.262344 74.731201,151.438538 88.631454,153.687622 
	C89.691071,153.859070 91.135231,153.096634 92.072830,152.354279 
	C100.559349,145.634964 107.661324,145.594589 115.863777,152.132751 
	C117.013367,153.049088 118.871384,153.868622 120.208702,153.634033 
	C132.540131,151.470810 144.453690,148.049759 155.631332,140.693665 
	C159.292923,138.935791 161.572357,136.109787 160.901169,131.975800 
	C159.197098,121.480247 155.570908,111.784599 147.728729,103.336250 
	C146.021423,101.522629 144.471527,99.522850 142.581787,97.924995 
	C128.127823,85.703598 112.031128,79.655098 92.139877,84.964287 
	C90.498817,85.103729 88.747131,84.917442 87.233330,85.431580 
	C65.336922,92.868462 51.990028,107.982254 47.513485,130.639160 
	C47.071636,132.875443 48.971645,135.574463 50.096096,138.685944 
M124.834320,50.057549 
	C136.763901,50.137028 141.463150,44.869701 140.633804,32.030521 
	C141.794434,32.321499 142.862091,32.589172 143.308884,32.701187 
	C144.469299,28.541498 145.465622,24.724609 146.611786,20.953262 
	C147.301392,18.684193 147.272293,17.098248 144.376404,16.656935 
	C139.124588,15.856596 133.898041,14.152109 128.661499,14.154264 
	C119.725342,14.157944 110.831413,22.554522 110.044586,30.515944 
	C109.209602,38.964607 114.466942,48.584393 124.834320,50.057549 
M145.916901,40.769180 
	C145.304062,40.773571 144.159561,40.727711 144.153717,40.789471 
	C143.411758,48.639900 138.080307,51.998589 131.439804,54.480846 
	C129.640640,55.153389 127.430542,57.258633 127.142792,58.993805 
	C126.036423,65.665367 125.525406,72.446335 125.069946,79.205200 
	C124.989380,80.400780 125.907257,82.221657 126.921638,82.841911 
	C133.226013,86.696754 139.689362,90.291634 145.390427,93.565308 
	C148.645172,79.914307 152.030289,65.716553 155.389114,51.629101 
	C152.756943,48.686264 149.489685,45.033363 145.916901,40.769180 
M110.527725,46.855862 
	C109.178154,44.256519 107.828575,41.657177 106.334770,38.780029 
	C105.533867,51.303265 105.477203,51.214546 94.633766,58.140533 
	C93.277718,59.006680 92.382614,61.344456 92.180077,63.104626 
	C91.802200,66.388512 91.990021,69.753136 92.126434,73.076614 
	C92.298271,77.263268 93.794182,79.868851 98.807014,79.078926 
	C101.893875,78.592491 105.125290,78.837173 108.278481,79.004494 
	C112.314926,79.218697 116.337975,79.685387 120.043167,80.014519 
	C121.075203,71.901451 122.128799,64.551575 122.819756,57.167778 
	C122.921814,56.077137 121.536865,54.517036 120.444496,53.708092 
	C117.408371,51.459721 114.163895,49.492706 110.527725,46.855862 
M69.323219,166.251923 
	C75.170906,167.792511 81.018585,169.333099 87.381409,171.009399 
	C87.381409,166.074463 87.381409,162.341339 87.381409,159.421783 
	C73.787277,154.202301 60.320377,149.031693 46.980431,143.909805 
	C46.617672,150.894043 47.894363,157.716736 56.783768,160.731125 
	C60.844383,162.108078 64.647919,164.243179 69.323219,166.251923 
z"/>
<path fill="#4A3918" opacity="1.000000" stroke="none" 
	d="
M65.829803,74.010208 
	C65.459457,75.721748 65.089111,77.433296 64.712341,79.174530 
	C63.129776,79.450630 61.470127,79.740181 59.020115,80.019226 
	C56.154026,80.334549 54.078308,80.660385 52.002586,80.986229 
	C47.054928,79.190361 43.625851,75.908676 42.017761,70.073853 
	C41.990913,68.556198 41.996113,67.778633 42.075722,66.946747 
	C42.150131,66.892426 42.299400,66.784409 42.495838,67.059967 
	C43.823059,69.546669 44.953842,71.757812 46.216171,74.287766 
	C51.087540,79.856407 55.147488,80.587791 60.255333,77.111923 
	C57.318089,71.120041 51.577290,73.923706 47.204903,72.577896 
	C49.338879,71.691666 51.322987,71.131989 53.620487,70.483902 
	C52.726383,69.305687 51.858105,68.161491 51.117538,66.780380 
	C51.536404,66.339951 51.827560,66.136436 52.400284,66.104965 
	C54.193546,67.710060 55.705235,69.143120 57.280281,70.636246 
	C57.928299,69.285027 58.448921,68.199440 59.428719,66.156403 
	C59.951176,68.246223 60.182076,69.169838 60.385864,70.321632 
	C60.437794,70.865631 60.612541,71.114265 60.839264,71.632614 
	C61.253395,73.087128 61.711262,74.204742 62.169128,75.322365 
	C62.761318,74.881783 63.353508,74.441208 64.260452,74.001945 
	C64.993401,74.005569 65.411606,74.007889 65.829803,74.010208 
z"/>
<path fill="#5A432C" opacity="1.000000" stroke="none" 
	d="
M39.001411,55.001160 
	C40.428829,54.400944 42.014320,53.064117 43.255764,53.330524 
	C48.120464,54.374481 52.876583,55.924412 57.874817,57.818443 
	C58.062233,58.523537 58.047882,58.696545 57.640297,58.895317 
	C51.513321,57.643681 45.779572,56.366272 39.792175,55.055943 
	C39.368011,55.024246 39.197495,55.025471 39.020466,55.020260 
	C39.013950,55.013828 39.001411,55.001160 39.001411,55.001160 
z"/>
<path fill="#483712" opacity="1.000000" stroke="none" 
	d="
M65.922928,73.627777 
	C65.411606,74.007889 64.993401,74.005569 64.282066,73.638382 
	C64.046623,72.305237 64.104317,71.336975 64.334953,70.176743 
	C64.396141,69.523468 64.284386,69.062180 64.216003,68.234879 
	C63.674381,66.077164 63.089390,64.285439 62.639984,62.357903 
	C62.775574,62.222084 63.045654,61.949364 63.045654,61.949364 
	C66.402489,65.092339 68.066925,68.680344 65.922928,73.627777 
z"/>
<path fill="#4D3A1B" opacity="1.000000" stroke="none" 
	d="
M40.984829,66.030754 
	C40.656025,65.281609 40.327217,64.532463 40.004456,63.109303 
	C40.290089,61.618748 40.569683,60.802212 40.952156,60.342728 
	C41.349991,62.133694 41.644939,63.567600 41.729202,65.119682 
	C41.260101,65.447952 41.082211,65.712250 40.984829,66.030754 
z"/>
<path fill="#4D3A1B" opacity="1.000000" stroke="none" 
	d="
M52.423714,80.999748 
	C54.078308,80.660385 56.154026,80.334549 58.655453,80.021072 
	C57.002388,80.360054 54.923615,80.686661 52.423714,80.999748 
z"/>
<path fill="#5A432C" opacity="1.000000" stroke="none" 
	d="
M40.849277,59.985676 
	C40.569683,60.802212 40.290089,61.618748 39.990276,62.777092 
	C39.668018,61.678158 39.365978,60.237419 39.037209,58.393139 
	C39.010475,57.989597 39.023548,57.976601 39.338051,57.977997 
	C39.861450,57.960564 40.070347,57.941734 40.458336,58.138298 
	C40.708050,58.897682 40.778664,59.441681 40.849277,59.985676 
z"/>
<path fill="#483712" opacity="1.000000" stroke="none" 
	d="
M58.033531,58.869549 
	C58.047882,58.696545 58.062233,58.523537 58.116680,58.092476 
	C59.014061,58.368549 59.871353,58.902672 60.731911,59.858627 
	C60.735176,60.280460 60.416794,60.613262 60.156387,60.459679 
	C59.275162,59.827244 58.654346,59.348396 58.033531,58.869549 
z"/>
<path fill="#5A432C" opacity="1.000000" stroke="none" 
	d="
M39.003620,57.995987 
	C38.794872,57.093185 38.592979,56.183994 38.696247,55.137978 
	C39.001411,55.001160 39.013950,55.013828 39.017567,55.388863 
	C39.021973,56.501469 39.022762,57.239033 39.023552,57.976601 
	C39.023548,57.976601 39.010475,57.989597 39.003620,57.995987 
z"/>
<path fill="#483712" opacity="1.000000" stroke="none" 
	d="
M60.895107,60.114777 
	C61.628986,60.446110 62.202938,60.943134 62.911270,61.694759 
	C63.045654,61.949364 62.775574,62.222084 62.408134,62.197205 
	C61.499393,61.652641 60.958092,61.132954 60.416794,60.613262 
	C60.416794,60.613262 60.735176,60.280460 60.895107,60.114777 
z"/>
<path fill="#4D3A1B" opacity="1.000000" stroke="none" 
	d="
M42.001312,67.001068 
	C41.996113,67.778633 41.990913,68.556198 41.968323,69.724007 
	C41.651012,69.308136 41.351086,68.502014 41.321079,67.349609 
	C41.591000,67.003311 42.001312,67.001068 42.001312,67.001068 
z"/>
<path fill="#4A3918" opacity="1.000000" stroke="none" 
	d="
M42.075722,66.946747 
	C42.001312,67.001068 41.591000,67.003311 41.387154,67.005386 
	C41.183308,67.007462 41.071064,66.521584 41.027946,66.276169 
	C41.082211,65.712250 41.260101,65.447952 41.812981,65.412216 
	C42.171436,65.985855 42.235420,66.385132 42.299400,66.784409 
	C42.299400,66.784409 42.150131,66.892426 42.075722,66.946747 
z"/>
<path fill="#53B947" opacity="1.000000" stroke="none" 
	d="
M154.973236,140.893753 
	C144.453690,148.049759 132.540131,151.470810 120.208702,153.634033 
	C118.871384,153.868622 117.013367,153.049088 115.863777,152.132751 
	C107.661324,145.594589 100.559349,145.634964 92.072830,152.354279 
	C91.135231,153.096634 89.691071,153.859070 88.631454,153.687622 
	C74.731201,151.438538 61.547321,147.262344 49.989063,137.968384 
	C54.578407,113.197220 67.248917,95.611633 90.751907,86.769737 
	C91.592194,86.453613 92.245575,85.640694 92.986069,85.059311 
	C112.031128,79.655098 128.127823,85.703598 142.581787,97.924995 
	C144.471527,99.522850 146.021423,101.522629 147.875702,104.007706 
	C154.606369,115.931770 155.726593,128.232971 154.973236,140.893753 
z"/>
<path fill="#307539" opacity="1.000000" stroke="none" 
	d="
M179.335541,15.014582 
	C196.035019,21.416183 200.228775,35.992672 202.931091,51.416576 
	C203.896149,56.924755 204.240097,62.541759 204.471924,68.655060 
	C203.721756,70.067307 203.153671,70.907722 203.045074,71.803818 
	C201.676819,83.094063 200.822296,94.466949 198.953796,105.671524 
	C195.957809,123.637154 188.225998,139.324478 174.083740,151.254013 
	C171.161453,153.719070 167.336761,155.114380 163.927979,157.002731 
	C165.581436,146.682343 167.632645,136.287369 163.962753,126.051231 
	C161.575378,119.392326 159.344315,112.393166 155.424088,106.652046 
	C151.864624,101.439285 150.479965,96.487877 150.977005,90.507660 
	C151.904144,79.352715 154.367584,68.616341 158.799881,58.302322 
	C160.460159,54.438843 162.796661,52.911343 167.147842,52.914543 
	C176.608292,52.921505 183.691803,42.891151 180.796310,34.179104 
	C180.560684,33.470104 179.911575,32.898529 178.546112,30.999859 
	C178.348297,42.907085 173.554443,49.693813 162.134308,48.712746 
	C155.479568,48.141060 149.764313,41.448330 148.977707,34.876625 
	C147.995697,26.672428 151.477966,19.367777 158.128738,16.463703 
	C163.586517,15.722902 168.489120,15.315324 173.398239,15.014561 
	C175.369934,14.893763 177.356018,15.007559 179.335541,15.014582 
z"/>
<path fill="#FBFAFA" opacity="1.000000" stroke="none" 
	d="
M124.109375,174.917328 
	C130.485825,173.011505 136.862259,171.105682 143.608154,169.537811 
	C146.705902,174.032928 142.353806,175.724991 140.741348,177.973587 
	C137.069183,183.094437 133.993866,189.457123 125.600616,189.067932 
	C121.416656,189.561005 117.559456,189.655624 113.968254,190.681458 
	C106.807770,192.726852 99.845726,195.015076 92.165184,193.231552 
	C89.639130,192.644974 86.742889,193.652573 84.015930,193.931183 
	C68.987602,188.870575 58.989925,178.380768 51.334412,163.604248 
	C54.066700,164.634567 55.770412,165.391296 57.541191,165.925903 
	C67.692421,168.990677 77.863197,171.990646 88.017059,175.046799 
	C89.399063,175.462738 91.026367,175.737213 92.023514,176.644775 
	C97.025482,181.197281 102.770065,182.321518 109.493942,181.291428 
	C110.491714,182.314331 111.391777,183.644363 111.863373,183.506699 
	C116.418404,182.176941 120.948067,180.722351 125.378761,179.025970 
	C126.851723,178.462021 128.017838,177.096634 130.337646,175.322708 
	C127.300659,175.125031 125.705017,175.021179 124.109375,174.917328 
z"/>
<path fill="#33763A" opacity="1.000000" stroke="none" 
	d="
M124.408592,50.034477 
	C114.466942,48.584393 109.209602,38.964607 110.044586,30.515944 
	C110.831413,22.554522 119.725342,14.157944 128.661499,14.154264 
	C133.898041,14.152109 139.124588,15.856596 144.376404,16.656935 
	C147.272293,17.098248 147.301392,18.684193 146.611786,20.953262 
	C145.465622,24.724609 144.469299,28.541498 143.308884,32.701187 
	C142.862091,32.589172 141.794434,32.321499 140.633804,32.030521 
	C141.463150,44.869701 136.763901,50.137028 124.408592,50.034477 
z"/>
<path fill="#327539" opacity="1.000000" stroke="none" 
	d="
M103.874886,33.054523 
	C102.797539,32.726742 101.720184,32.398960 100.149323,32.119911 
	C99.592316,32.266880 99.452110,32.411316 99.478630,32.455353 
	C99.592690,32.644756 99.755722,32.804668 99.900909,32.975323 
	C105.505096,40.352859 101.867027,48.852512 95.161003,52.841076 
	C88.106468,57.036915 76.805840,52.966892 73.173866,45.147957 
	C67.572601,33.089546 73.817436,22.965071 85.196198,18.899065 
	C87.691315,18.007477 90.482124,17.943367 93.679909,17.904896 
	C95.142418,17.877081 96.061775,17.442556 96.981133,17.008034 
	C97.486885,17.266144 97.992638,17.524250 98.819931,18.258175 
	C101.826538,20.184256 104.511612,21.634516 107.196678,23.084778 
	C106.774490,26.104383 106.352295,29.123987 105.568436,32.572830 
	C104.762802,33.019550 104.318848,33.037037 103.874886,33.054523 
z"/>
<path fill="#317438" opacity="1.000000" stroke="none" 
	d="
M146.069656,41.074821 
	C149.489685,45.033363 152.756943,48.686264 155.389114,51.629101 
	C152.030289,65.716553 148.645172,79.914307 145.390427,93.565308 
	C139.689362,90.291634 133.226013,86.696754 126.921638,82.841911 
	C125.907257,82.221657 124.989380,80.400780 125.069946,79.205200 
	C125.525406,72.446335 126.036423,65.665367 127.142792,58.993805 
	C127.430542,57.258633 129.640640,55.153389 131.439804,54.480846 
	C138.080307,51.998589 143.411758,48.639900 144.153717,40.789471 
	C144.159561,40.727711 145.304062,40.773571 146.069656,41.074821 
z"/>
<path fill="#317337" opacity="1.000000" stroke="none" 
	d="
M110.764725,47.135204 
	C114.163895,49.492706 117.408371,51.459721 120.444496,53.708092 
	C121.536865,54.517036 122.921814,56.077137 122.819756,57.167778 
	C122.128799,64.551575 121.075203,71.901451 120.043167,80.014519 
	C116.337975,79.685387 112.314926,79.218697 108.278481,79.004494 
	C105.125290,78.837173 101.893875,78.592491 98.807014,79.078926 
	C93.794182,79.868851 92.298271,77.263268 92.126434,73.076614 
	C91.990021,69.753136 91.802200,66.388512 92.180077,63.104626 
	C92.382614,61.344456 93.277718,59.006680 94.633766,58.140533 
	C105.477203,51.214546 105.533867,51.303265 106.334770,38.780029 
	C107.828575,41.657177 109.178154,44.256519 110.764725,47.135204 
z"/>
<path fill="#2D602E" opacity="1.000000" stroke="none" 
	d="
M163.669037,157.240707 
	C167.336761,155.114380 171.161453,153.719070 174.083740,151.254013 
	C188.225998,139.324478 195.957809,123.637154 198.953796,105.671524 
	C200.822296,94.466949 201.676819,83.094063 203.045074,71.803818 
	C203.153671,70.907722 203.721756,70.067307 204.445618,69.075691 
	C206.132202,91.192413 203.280121,113.019791 196.573837,134.135040 
	C192.340530,147.463852 186.024048,160.087219 173.450745,167.964371 
	C168.983612,170.763031 164.180542,173.114288 158.149841,171.497726 
	C159.952728,166.692871 161.681412,162.085770 163.669037,157.240707 
z"/>
<path fill="#897C6F" opacity="1.000000" stroke="none" 
	d="
M68.945633,166.143173 
	C64.647919,164.243179 60.844383,162.108078 56.783768,160.731125 
	C47.894363,157.716736 46.617672,150.894043 46.980431,143.909805 
	C60.320377,149.031693 73.787277,154.202301 87.381409,159.421783 
	C87.381409,162.341339 87.381409,166.074463 87.381409,171.009399 
	C81.018585,169.333099 75.170906,167.792511 68.945633,166.143173 
z"/>
<path fill="#897C6F" opacity="1.000000" stroke="none" 
	d="
M149.979218,160.976639 
	C141.280670,166.427460 131.697235,168.995132 121.285767,170.326035 
	C121.034615,165.999298 120.818214,162.271240 120.652138,159.410172 
	C131.708588,155.215561 142.500946,151.121140 153.635376,147.364563 
	C152.644714,152.127151 151.311966,156.551895 149.979218,160.976639 
z"/>
<path fill="#ECF0E7" opacity="1.000000" stroke="none" 
	d="
M92.562973,85.011795 
	C92.245575,85.640694 91.592194,86.453613 90.751907,86.769737 
	C67.248917,95.611633 54.578407,113.197220 49.833363,137.654755 
	C48.971645,135.574463 47.071636,132.875443 47.513485,130.639160 
	C51.990028,107.982254 65.336922,92.868462 87.233330,85.431580 
	C88.747131,84.917442 90.498817,85.103729 92.562973,85.011795 
z"/>
<path fill="#F0EEEB" opacity="1.000000" stroke="none" 
	d="
M93.842659,172.076935 
	C89.592735,165.541794 90.571632,158.403381 96.304840,154.121841 
	C101.844597,149.984772 109.772240,150.946869 114.142609,156.286621 
	C118.761566,161.930099 117.916901,169.024872 111.513100,174.387222 
	C111.042496,173.635056 111.000099,173.272324 111.124466,172.570190 
	C114.123360,168.009171 114.233910,163.801132 110.709328,160.002029 
	C107.666290,156.722000 103.825020,156.157532 99.832367,158.152435 
	C94.754356,160.689590 93.692429,165.913223 96.292778,172.216278 
	C95.150497,172.136459 94.496574,172.106689 93.842659,172.076935 
z"/>
<path fill="#DEE0E1" opacity="1.000000" stroke="none" 
	d="
M84.272461,194.194763 
	C86.742889,193.652573 89.639130,192.644974 92.165184,193.231552 
	C99.845726,195.015076 106.807770,192.726852 113.968254,190.681458 
	C117.559456,189.655624 121.416656,189.561005 125.734512,189.335754 
	C127.209206,190.414520 128.102951,191.202744 128.996704,191.990967 
	C114.536674,199.347260 99.689064,199.718521 84.272461,194.194763 
z"/>
<path fill="#DCDBDC" opacity="1.000000" stroke="none" 
	d="
M129.347595,191.946594 
	C128.102951,191.202744 127.209206,190.414520 126.181564,189.358475 
	C133.993866,189.457123 137.069183,183.094437 140.741348,177.973587 
	C142.353806,175.724991 146.705902,174.032928 143.977295,169.518005 
	C147.784500,167.326859 151.592041,165.493469 155.713409,163.841370 
	C156.027267,164.022675 155.970871,163.982559 155.970871,163.982559 
	C151.170700,177.012924 141.610580,185.564178 129.347595,191.946594 
z"/>
<path fill="#489B44" opacity="1.000000" stroke="none" 
	d="
M155.302277,140.793701 
	C155.726593,128.232971 154.606369,115.931770 148.032852,104.299438 
	C155.570908,111.784599 159.197098,121.480247 160.901169,131.975800 
	C161.572357,136.109787 159.292923,138.935791 155.302277,140.793701 
z"/>
<path fill="#715B43" opacity="1.000000" stroke="none" 
	d="
M150.340668,160.962830 
	C151.311966,156.551895 152.644714,152.127151 153.995941,147.307159 
	C156.025543,145.612518 158.036682,144.313141 160.193222,142.919800 
	C162.390579,152.320999 159.921875,156.794662 150.340668,160.962830 
z"/>
<path fill="#000000" opacity="1.000000" stroke="none" 
	d="
M123.779053,174.953232 
	C125.705017,175.021179 127.300659,175.125031 130.337646,175.322708 
	C128.017838,177.096634 126.851723,178.462021 125.378761,179.025970 
	C120.948067,180.722351 116.418404,182.176941 111.863373,183.506699 
	C111.391777,183.644363 110.491714,182.314331 109.895126,181.339645 
	C111.371010,180.514038 112.784821,180.106216 114.104942,179.495773 
	C117.243134,178.044571 120.336975,176.497467 123.779053,174.953232 
z"/>
<path fill="#F2F4EE" opacity="1.000000" stroke="none" 
	d="
M179.110321,14.666159 
	C177.356018,15.007559 175.369934,14.893763 173.398239,15.014561 
	C168.489120,15.315324 163.586517,15.722902 158.273941,16.278921 
	C159.340622,15.358415 160.810638,13.308331 162.289429,13.301971 
	C167.819763,13.278191 173.352982,13.923408 179.110321,14.666159 
z"/>
<path fill="#DBD3CD" opacity="1.000000" stroke="none" 
	d="
M110.957703,172.909592 
	C111.000099,173.272324 111.042496,173.635056 111.166023,174.539612 
	C104.916908,178.983017 99.797783,178.288376 93.935745,172.410980 
	C94.496574,172.106689 95.150497,172.136459 96.524368,172.378662 
	C102.648155,176.598999 104.865395,176.650497 110.957703,172.909592 
z"/>
<path fill="#317336" opacity="1.000000" stroke="none" 
	d="
M107.430565,22.843403 
	C104.511612,21.634516 101.826538,20.184256 99.075188,18.389219 
	C101.101807,18.239727 103.373466,18.009682 105.221939,18.786560 
	C106.368164,19.268297 106.872169,21.278118 107.430565,22.843403 
z"/>
<path fill="#317336" opacity="1.000000" stroke="none" 
	d="
M96.642044,16.966515 
	C96.061775,17.442556 95.142418,17.877081 94.029289,18.025303 
	C94.657997,17.467667 95.480476,17.196331 96.642044,16.966515 
z"/>
<path fill="#317336" opacity="1.000000" stroke="none" 
	d="
M103.936142,33.376305 
	C104.318848,33.037037 104.762802,33.019550 105.537079,32.997784 
	C105.867393,33.959347 105.867393,34.925190 105.867393,36.882118 
	C104.958031,35.333752 104.477715,34.515919 103.936142,33.376305 
z"/>
<path fill="#DCDBDC" opacity="1.000000" stroke="none" 
	d="
M156.056976,164.040405 
	C156.149933,163.996109 156.213181,163.934067 156.123657,163.927307 
	C155.970871,163.982559 156.027267,164.022675 156.056976,164.040405 
z"/>
<path fill="#317336" opacity="1.000000" stroke="none" 
	d="
M99.931892,32.731609 
	C99.755722,32.804668 99.592690,32.644756 99.478630,32.455353 
	C99.452110,32.411316 99.592316,32.266880 99.811417,32.082603 
	C99.967041,31.996563 99.962875,32.487896 99.931892,32.731609 
z"/>
<path fill="#56B348" opacity="1.000000" stroke="none" 
	d="
M42.495838,67.059967 
	C42.235420,66.385132 42.171436,65.985855 42.023674,65.294044 
	C41.644939,63.567600 41.349991,62.133694 40.952156,60.342728 
	C40.778664,59.441681 40.708050,58.897682 40.412594,57.784504 
	C40.140446,56.506504 40.093136,55.797684 40.045826,55.088867 
	C45.779572,56.366272 51.513321,57.643681 57.640297,58.895317 
	C58.654346,59.348396 59.275162,59.827244 60.156387,60.459679 
	C60.958092,61.132954 61.499393,61.652641 62.272545,62.333023 
	C63.089390,64.285439 63.674381,66.077164 64.184372,68.678101 
	C64.126915,69.781120 64.144463,70.074921 64.162010,70.368713 
	C64.104317,71.336975 64.046623,72.305237 63.967316,73.637070 
	C63.353508,74.441208 62.761318,74.881783 62.169128,75.322365 
	C61.711262,74.204742 61.253395,73.087128 60.833580,71.404404 
	C60.808987,70.535088 60.656101,70.286461 60.412979,70.093445 
	C60.182076,69.169838 59.951176,68.246223 59.428719,66.156403 
	C58.448921,68.199440 57.928299,69.285027 57.280281,70.636246 
	C55.705235,69.143120 54.193546,67.710060 52.353630,65.691513 
	C51.833553,62.936554 51.641708,60.767075 51.449860,58.597599 
	C51.143360,58.607311 50.836857,58.617023 50.530357,58.626736 
	C50.061146,59.700836 49.591934,60.774933 49.097836,61.906002 
	C47.424416,60.807095 46.116589,59.948261 44.808762,59.089432 
	C44.509418,59.500290 44.210075,59.911148 43.910732,60.322006 
	C46.270432,62.553772 48.630127,64.785538 50.989822,67.017303 
	C51.858105,68.161491 52.726383,69.305687 53.620487,70.483902 
	C51.322987,71.131989 49.338879,71.691666 47.097683,72.802078 
	C46.656509,73.641518 46.404518,73.846909 46.084625,73.968964 
	C44.953842,71.757812 43.823059,69.546669 42.495838,67.059967 
z"/>
<path fill="#53AD43" opacity="1.000000" stroke="none" 
	d="
M46.216171,74.287766 
	C46.404518,73.846909 46.656509,73.641518 46.947819,73.128616 
	C51.577290,73.923706 57.318089,71.120041 60.255333,77.111923 
	C55.147488,80.587791 51.087540,79.856407 46.216171,74.287766 
z"/>
<path fill="#4A431A" opacity="1.000000" stroke="none" 
	d="
M51.117538,66.780380 
	C48.630127,64.785538 46.270432,62.553772 43.910732,60.322006 
	C44.210075,59.911148 44.509418,59.500290 44.808762,59.089432 
	C46.116589,59.948261 47.424416,60.807095 49.097836,61.906002 
	C49.591934,60.774933 50.061146,59.700836 50.530357,58.626736 
	C50.836857,58.617023 51.143360,58.607311 51.449860,58.597599 
	C51.641708,60.767075 51.833553,62.936554 52.072060,65.519478 
	C51.827560,66.136436 51.536404,66.339951 51.117538,66.780380 
z"/>
<path fill="#53AB42" opacity="1.000000" stroke="none" 
	d="
M60.385864,70.321632 
	C60.656101,70.286461 60.808987,70.535088 60.877319,71.067520 
	C60.612541,71.114265 60.437794,70.865631 60.385864,70.321632 
z"/>
<path fill="#4D3A1B" opacity="1.000000" stroke="none" 
	d="
M39.792175,55.055943 
	C40.093136,55.797684 40.140446,56.506504 40.233498,57.569115 
	C40.070347,57.941734 39.861450,57.960564 39.338051,57.977997 
	C39.022762,57.239033 39.021973,56.501469 39.024082,55.395294 
	C39.197495,55.025471 39.368011,55.024246 39.792175,55.055943 
z"/>
<path fill="#53AB42" opacity="1.000000" stroke="none" 
	d="
M64.334953,70.176743 
	C64.144463,70.074921 64.126915,69.781120 64.140991,69.044098 
	C64.284386,69.062180 64.396141,69.523468 64.334953,70.176743 
z"/>
<path fill="#533621" opacity="1.000000" stroke="none" 
	d="
M111.124466,172.570190 
	C104.865395,176.650497 102.648155,176.598999 97.012726,172.428711 
	C93.692429,165.913223 94.754356,160.689590 99.832367,158.152435 
	C103.825020,156.157532 107.666290,156.722000 110.709328,160.002029 
	C114.233910,163.801132 114.123360,168.009171 111.124466,172.570190 
M100.054588,169.524673 
	C104.330780,172.373642 108.415283,171.590073 108.871376,167.585541 
	C109.061790,165.913773 108.228645,163.436432 106.978447,162.485352 
	C105.753548,161.553528 102.389412,161.324585 101.762772,162.150986 
	C100.424553,163.915787 100.249374,166.562485 100.054588,169.524673 
z"/>
<path fill="#F2F0ED" opacity="1.000000" stroke="none" 
	d="
M99.826157,169.186279 
	C100.249374,166.562485 100.424553,163.915787 101.762772,162.150986 
	C102.389412,161.324585 105.753548,161.553528 106.978447,162.485352 
	C108.228645,163.436432 109.061790,165.913773 108.871376,167.585541 
	C108.415283,171.590073 104.330780,172.373642 99.826157,169.186279 
z"/>
</svg>